<svg width="19" height="18" viewBox="0 0 19 18" fill="none" xmlns="http://www.w3.org/2000/svg">
<path d="M10.1562 2.4375L15.8281 8.8125L10.1562 15.1875C9.96875 15.4219 9.875 15.7031 9.875 15.9375C9.875 16.2656 9.96875 16.5938 10.2031 16.7812C10.6719 17.2031 11.375 17.1562 11.7969 16.7344L18.125 9.60938C18.5 9.14062 18.5 8.53125 18.125 8.10938L11.7969 0.984375C11.375 0.515625 10.6719 0.46875 10.2031 0.890625C9.78125 1.26562 9.73438 2.01562 10.1562 2.4375ZM9.17188 9.5625C9.59375 9.14062 9.59375 8.53125 9.17188 8.0625L2.79688 0.9375C2.42188 0.515625 1.67188 0.46875 1.25 0.890625C0.78125 1.26562 0.734375 2.01562 1.15625 2.4375L6.82812 8.8125L1.15625 15.1875C0.96875 15.4219 0.875 15.7031 0.875 15.9375C0.875 16.2656 0.96875 16.5938 1.20312 16.7812C1.67188 17.2031 2.375 17.1562 2.79688 16.7344L9.17188 9.5625Z" fill="#808080"/>
</svg>
