<svg width="14" height="14" viewBox="0 0 14 14" fill="none" xmlns="http://www.w3.org/2000/svg">
<path d="M12 0H2C0.875 0 0 0.90625 0 2V12C0 13.125 0.875 14 2 14H12C13.0938 14 14 13.125 14 12V2C14 0.90625 13.0938 0 12 0ZM10.3125 9.125C10.3125 9.34375 10.1875 9.53125 10 9.59375C9.8125 9.6875 9.59375 9.625 9.46875 9.5L8.03125 8.0625L5.9375 10.1875C5.53125 10.5938 4.90625 10.5938 4.5 10.1875L3.8125 9.5C3.40625 9.09375 3.40625 8.46875 3.8125 8.0625L5.9375 5.9375L4.5 4.53125C4.375 4.40625 4.3125 4.1875 4.40625 4C4.46875 3.8125 4.65625 3.6875 4.875 3.6875H9.8125C10.0938 3.6875 10.2812 3.90625 10.2812 4.15625V9.125H10.3125Z" fill="#3E484F"/>
</svg>
