<svg width="25" height="18" viewBox="0 0 25 18" fill="none" xmlns="http://www.w3.org/2000/svg">
<path d="M22.3501 0C23.5688 0 24.6001 1.03125 24.6001 2.25C24.6001 3 24.2251 3.65625 23.6626 4.07812L13.4907 11.7188C12.9282 12.1406 12.2251 12.1406 11.6626 11.7188L1.49072 4.07812C0.928223 3.65625 0.600098 3 0.600098 2.25C0.600098 1.03125 1.58447 0 2.8501 0H22.3501ZM10.772 12.9375C11.8501 13.7344 13.3032 13.7344 14.3813 12.9375L24.6001 5.25V15C24.6001 16.6875 23.2407 18 21.6001 18H3.6001C1.9126 18 0.600098 16.6875 0.600098 15V5.25L10.772 12.9375Z" fill="white"/>
</svg>
