<svg width="19" height="25" viewBox="0 0 19 25" fill="none" xmlns="http://www.w3.org/2000/svg">
<path d="M8.7251 23.4375C6.2876 20.3906 0.850098 13.125 0.850098 9C0.850098 4.03125 4.83447 0 9.8501 0C14.8188 0 18.8501 4.03125 18.8501 9C18.8501 13.125 13.3657 20.3906 10.9282 23.4375C10.3657 24.1406 9.2876 24.1406 8.7251 23.4375ZM9.8501 12C11.4907 12 12.8501 10.6875 12.8501 9C12.8501 7.35938 11.4907 6 9.8501 6C8.1626 6 6.8501 7.35938 6.8501 9C6.8501 10.6875 8.1626 12 9.8501 12Z" fill="white"/>
</svg>
