<svg width="20" height="19" viewBox="0 0 20 19" fill="none" xmlns="http://www.w3.org/2000/svg">
<path d="M19.9948 9.65357C19.9948 10.2689 19.4739 10.7508 18.8835 10.7508H17.7723L17.7967 16.2269C17.7967 16.3192 17.7897 16.4115 17.7793 16.5038V17.0541C17.7793 17.8095 17.1577 18.4214 16.3903 18.4214H15.8347C15.7965 18.4214 15.7583 18.4214 15.7201 18.418C15.6715 18.4214 15.6229 18.4214 15.5742 18.4214H14.4457H13.6123C12.8448 18.4214 12.2233 17.8095 12.2233 17.0541V16.2337V14.046C12.2233 13.441 11.7267 12.9522 11.1121 12.9522H8.88964C8.27501 12.9522 7.77844 13.441 7.77844 14.046V16.2337V17.0541C7.77844 17.8095 7.15686 18.4214 6.38943 18.4214H5.55603H4.4483C4.39621 18.4214 4.34412 18.418 4.29203 18.4146C4.25036 18.418 4.20869 18.4214 4.16702 18.4214H3.61142C2.84399 18.4214 2.22241 17.8095 2.22241 17.0541V13.2257C2.22241 13.1949 2.22241 13.1607 2.22588 13.1299V10.7508H1.11121C0.486152 10.7508 0 10.2723 0 9.65357C0 9.34593 0.104176 9.07247 0.347252 8.83319L9.25079 1.19338C9.49386 0.954104 9.77166 0.919922 10.0147 0.919922C10.2578 0.919922 10.5356 0.988287 10.744 1.1592L19.6128 8.83319C19.8906 9.07247 20.0295 9.34593 19.9948 9.65357Z" fill="#565656"/>
</svg>
