<svg width="12" height="16" viewBox="0 0 12 16" fill="none" xmlns="http://www.w3.org/2000/svg">
<circle cx="6" cy="10" r="6" fill="#D9D9D9"/>
<path d="M6.6213 5.25C6.61197 5.48333 6.5233 5.67467 6.3553 5.824C6.19664 5.964 6.0053 6.034 5.7813 6.034C5.5573 6.034 5.36597 5.95467 5.2073 5.796C5.04864 5.63733 4.9693 5.446 4.9693 5.222C4.9693 4.97933 5.0673 4.788 5.2633 4.648C5.4593 4.508 5.65997 4.438 5.8653 4.438C6.10797 4.438 6.29464 4.522 6.4253 4.69C6.55597 4.84867 6.6213 5.03533 6.6213 5.25ZM6.4253 8.512L6.3133 11.452C6.3133 11.9653 6.3553 12.3667 6.4393 12.656C6.5233 12.9453 6.68664 13.09 6.9293 13.09C7.19997 13.09 7.4333 13.0293 7.62931 12.908C7.83464 12.7773 8.03064 12.628 8.21731 12.46L8.3993 12.6V12.754C8.24064 12.9593 8.05397 13.1693 7.8393 13.384C7.63397 13.5893 7.40997 13.762 7.1673 13.902C6.93397 14.042 6.68664 14.112 6.4253 14.112C6.2293 14.112 6.04264 14.0747 5.8653 14C5.6973 13.9347 5.56197 13.79 5.4593 13.566C5.35664 13.342 5.3053 13.0013 5.3053 12.544L5.3893 9.45C5.3893 9.086 5.35197 8.79667 5.2773 8.582C5.21197 8.36733 5.08597 8.26 4.8993 8.26C4.74997 8.26 4.56797 8.31133 4.3533 8.414C4.13864 8.50733 3.9473 8.60533 3.7793 8.708L3.5973 8.456C3.91464 8.204 4.25064 7.966 4.6053 7.742C4.9693 7.518 5.28664 7.406 5.5573 7.406C5.87464 7.406 6.09864 7.51333 6.2293 7.728C6.35997 7.94267 6.4253 8.204 6.4253 8.512Z" fill="black"/>
</svg>
