<svg width="25" height="26" viewBox="0 0 25 26" fill="none" xmlns="http://www.w3.org/2000/svg">
<path d="M24.3281 19.1406L23.2031 23.875C23.0625 24.5781 22.5 25.0469 21.7969 25.0469C9.98438 25 0.375 15.3906 0.375 3.57812C0.375 2.875 0.796875 2.3125 1.5 2.17188L6.23438 1.04688C6.89062 0.90625 7.59375 1.28125 7.875 1.89062L10.0781 7C10.3125 7.60938 10.1719 8.3125 9.65625 8.6875L7.125 10.75C8.71875 13.9844 11.3438 16.6094 14.625 18.2031L16.6875 15.6719C17.0625 15.2031 17.7656 15.0156 18.375 15.25L23.4844 17.4531C24.0938 17.7812 24.4688 18.4844 24.3281 19.1406Z" fill="white"/>
</svg>
