<svg width="15" height="17" viewBox="0 0 15 17" fill="none" xmlns="http://www.w3.org/2000/svg">
<path d="M7.78125 0.0625C3.90625 0.0625 0.78125 3.21875 0.78125 7.0625C0.78125 9.96875 2.5 12.4375 5 13.5C4.875 12.8438 4.8125 12.2188 4.78125 11.6875C3.28125 10.7188 2.28125 9 2.28125 7.0625C2.28125 4.03125 4.71875 1.5625 7.78125 1.5625C10.8125 1.5625 13.2812 4.03125 13.2812 7.0625C13.2812 9 12.25 10.7188 10.75 11.6875C10.7188 12.2188 10.6562 12.8438 10.5312 13.5C13.0312 12.4375 14.7812 9.96875 14.7812 7.0625C14.7812 3.21875 11.625 0.0625 7.78125 0.0625ZM7.78125 9.8125C6.75 9.8125 5.78125 10.0938 5.78125 11.1875C5.78125 12.2188 6.15625 14.4688 6.40625 15.3438C6.5625 15.9375 7.1875 16.0625 7.78125 16.0625C8.34375 16.0625 8.96875 15.9375 9.125 15.3438C9.375 14.4375 9.78125 12.2188 9.78125 11.1875C9.78125 10.0938 8.78125 9.8125 7.78125 9.8125ZM7.78125 8.8125C8.71875 8.8125 9.53125 8.03125 9.53125 7.0625C9.53125 6.125 8.71875 5.3125 7.78125 5.3125C6.8125 5.3125 6.03125 6.09375 6.03125 7.0625C6.03125 8.03125 6.8125 8.8125 7.78125 8.8125ZM12.2812 7.0625C12.2812 4.59375 10.25 2.5625 7.78125 2.5625C5.28125 2.5625 3.28125 4.59375 3.28125 7.0625C3.28125 8.46875 3.90625 9.71875 4.9375 10.5312C5.0625 10.1562 5.375 9.71875 5.9375 9.4375C5.21875 8.90625 4.78125 8.03125 4.78125 7.0625C4.78125 5.40625 6.09375 4.0625 7.78125 4.0625C9.4375 4.0625 10.7812 5.40625 10.7812 7.0625C10.7812 8.03125 10.3125 8.90625 9.59375 9.4375C10.1562 9.71875 10.4688 10.1562 10.5938 10.5312C11.625 9.71875 12.2812 8.46875 12.2812 7.0625Z" fill="black"/>
</svg>
