<svg width="14" height="14" viewBox="0 0 14 14" fill="none" xmlns="http://www.w3.org/2000/svg">
<path d="M12 0H2C0.875 0 0 0.90625 0 2V12C0 13.125 0.875 14 2 14H12C13.0938 14 14 13.125 14 12V2C14 0.90625 13.0938 0 12 0ZM10.7812 6.28125L7.53125 9.78125C7.40625 9.9375 7.1875 10 7 10C6.78125 10 6.5625 9.9375 6.4375 9.78125L3.1875 6.28125C2.96875 6.0625 2.9375 5.75 3.0625 5.46875C3.15625 5.1875 3.4375 5 3.75 5H10.25C10.5312 5 10.8125 5.1875 10.9062 5.46875C11.0312 5.75 11 6.0625 10.7812 6.28125Z" fill="#3E484F"/>
</svg>
