<svg width="18" height="15" viewBox="0 0 18 15" fill="none" xmlns="http://www.w3.org/2000/svg">
<path d="M17 12.1699H10C9.46875 12.1699 9 12.6387 9 13.1699C9 13.7324 9.46875 14.1699 10 14.1699H17C17.5312 14.1699 18 13.7324 18 13.1699C18 12.6387 17.5312 12.1699 17 12.1699ZM10 2.16992H11C11.5312 2.16992 11.9688 1.73242 11.9688 1.16992C11.9688 0.638672 11.5 0.169922 11 0.169922H10C9.4375 0.169922 9 0.638672 9 1.16992C9 1.73242 9.4375 2.16992 10 2.16992ZM10 6.16992H13C13.5312 6.16992 14 5.73242 14 5.16992C14 4.63867 13.5312 4.16992 13 4.16992H10C9.46875 4.16992 9 4.63867 9 5.16992C9 5.73242 9.4375 6.16992 10 6.16992ZM10 10.1699H15C15.5312 10.1699 16 9.73242 16 9.16992C16 8.63867 15.5312 8.16992 15 8.16992H10C9.46875 8.16992 9 8.63867 9 9.16992C9 9.73242 9.4375 10.1699 10 10.1699ZM4.71875 0.482422C4.34375 0.0761719 3.625 0.0761719 3.25 0.482422L0.53125 3.51367C0.125 3.91992 0.15625 4.54492 0.5625 4.91992C0.75 5.07617 1 5.16992 1.21875 5.16992C1.5 5.16992 1.78125 5.07617 1.96875 4.85742L3 3.73242V13.1699C3 13.7324 3.4375 14.1699 4 14.1699C4.53125 14.1699 5 13.7324 5 13.1699V3.73242L6 4.85742C6.375 5.26367 7 5.29492 7.40625 4.91992C7.8125 4.54492 7.84375 3.91992 7.46875 3.51367L4.71875 0.482422Z" fill="#202429"/>
</svg>
