<svg width="241" height="41" viewBox="0 0 241 41" fill="none" xmlns="http://www.w3.org/2000/svg">
<path d="M127.209 34.4501V23.375H128.675V33.1431H134.131V34.4501H127.209Z" fill="#052C5A"/>
<path d="M141.196 31.8633L142.6 32.0384C142.381 32.8608 141.969 33.496 141.371 33.948C140.772 34.4 140.007 34.628 139.074 34.628C137.902 34.628 136.969 34.2656 136.281 33.5449C135.593 32.8201 135.251 31.8103 135.251 30.5033C135.251 29.1556 135.597 28.1051 136.293 27.36C136.99 26.6148 137.889 26.2402 138.997 26.2402C140.068 26.2402 140.947 26.6067 141.627 27.3355C142.307 28.0644 142.645 29.0945 142.645 30.4178C142.645 30.4993 142.641 30.6214 142.637 30.7802H136.652C136.701 31.6638 136.953 32.3356 137.401 32.8038C137.849 33.2721 138.407 33.5083 139.078 33.5083C139.575 33.5083 140.003 33.378 140.357 33.1174C140.707 32.8568 140.988 32.4374 141.196 31.8633ZM136.729 29.6646H141.208C141.147 28.9886 140.976 28.4838 140.695 28.1458C140.263 27.6205 139.701 27.36 139.009 27.36C138.386 27.36 137.861 27.5676 137.433 27.987C137.01 28.4064 136.774 28.9642 136.729 29.6646Z" fill="#052C5A"/>
<path d="M144.313 24.9385V23.375H145.673V24.9385H144.313ZM144.313 34.4501V26.4247H145.673V34.4501H144.313Z" fill="#052C5A"/>
<path d="M147.743 37.5248V26.4252H148.981V27.4676C149.274 27.0604 149.604 26.7551 149.97 26.5515C150.337 26.3479 150.785 26.2461 151.306 26.2461C151.99 26.2461 152.597 26.4212 153.118 26.7754C153.643 27.1297 154.038 27.6264 154.303 28.2657C154.571 28.909 154.702 29.6134 154.702 30.3789C154.702 31.2014 154.555 31.9384 154.262 32.598C153.969 33.2535 153.537 33.7584 152.979 34.1086C152.417 34.4587 151.827 34.6338 151.208 34.6338C150.756 34.6338 150.349 34.5361 149.987 34.3447C149.628 34.1534 149.331 33.9131 149.099 33.62V37.5248H147.743ZM148.977 30.4807C148.977 31.5149 149.185 32.2763 149.604 32.769C150.023 33.2617 150.528 33.51 151.123 33.51C151.725 33.51 152.246 33.2535 152.674 32.7446C153.106 32.2315 153.321 31.4416 153.321 30.3667C153.321 29.3447 153.11 28.5792 152.69 28.0702C152.271 27.5613 151.766 27.3088 151.184 27.3088C150.606 27.3088 150.093 27.5816 149.645 28.1232C149.197 28.6647 148.977 29.4505 148.977 30.4807Z" fill="#052C5A"/>
<path d="M155.63 34.4511V33.3477L160.736 27.4844C160.158 27.5129 159.645 27.5292 159.201 27.5292H155.931V26.4258H162.491V27.3256L158.146 32.4194L157.307 33.3477C157.918 33.3029 158.488 33.2785 159.022 33.2785H162.731V34.4511H155.63Z" fill="#052C5A"/>
<path d="M164.094 24.9385V23.375H165.454V24.9385H164.094ZM164.094 34.4501V26.4247H165.454V34.4501H164.094Z" fill="#052C5A"/>
<path d="M167.274 35.1143L168.597 35.3097C168.654 35.7169 168.805 36.0141 169.057 36.2014C169.395 36.4539 169.855 36.5801 170.442 36.5801C171.073 36.5801 171.557 36.4539 171.899 36.2014C172.241 35.949 172.473 35.5988 172.596 35.1428C172.665 34.8659 172.697 34.2837 172.693 33.396C172.099 34.0964 171.358 34.4465 170.47 34.4465C169.367 34.4465 168.512 34.0475 167.909 33.2535C167.306 32.4595 167.001 31.5027 167.001 30.3911C167.001 29.6256 167.139 28.9171 167.416 28.2738C167.693 27.6264 168.096 27.1256 168.622 26.7754C169.147 26.4212 169.766 26.2461 170.474 26.2461C171.423 26.2461 172.201 26.6288 172.815 27.3943V26.4252H174.069V33.3594C174.069 34.6094 173.943 35.493 173.687 36.0141C173.434 36.5353 173.031 36.9466 172.477 37.2479C171.928 37.5492 171.248 37.6998 170.442 37.6998C169.485 37.6998 168.711 37.484 168.121 37.0524C167.538 36.629 167.253 35.9816 167.274 35.1143ZM168.398 30.2934C168.398 31.348 168.605 32.1134 169.025 32.598C169.444 33.0825 169.965 33.3227 170.596 33.3227C171.219 33.3227 171.745 33.0825 172.168 32.602C172.591 32.1216 172.803 31.3683 172.803 30.3382C172.803 29.3569 172.583 28.6158 172.148 28.115C171.712 27.6183 171.187 27.3658 170.572 27.3658C169.969 27.3658 169.452 27.6101 169.029 28.1028C168.609 28.5955 168.398 29.3284 168.398 30.2934Z" fill="#052C5A"/>
<path d="M130.433 17.5399L126.142 6.46484H127.73L130.608 14.5106C130.84 15.1539 131.032 15.7606 131.191 16.3225C131.362 15.7199 131.561 15.1132 131.789 14.5106L134.782 6.46484H136.276L131.94 17.5399H130.433Z" fill="#5E6A93"/>
<path d="M136.057 13.5298C136.057 12.0436 136.468 10.9443 137.294 10.2276C137.983 9.63317 138.825 9.33594 139.819 9.33594C140.922 9.33594 141.822 9.69832 142.523 10.419C143.223 11.1438 143.573 12.1414 143.573 13.4158C143.573 14.45 143.418 15.2603 143.109 15.8507C142.799 16.4411 142.347 16.9012 141.757 17.231C141.167 17.5567 140.519 17.7237 139.819 17.7237C138.695 17.7237 137.787 17.3654 137.095 16.6447C136.403 15.9199 136.057 14.8816 136.057 13.5298ZM137.453 13.5298C137.453 14.5559 137.677 15.3254 138.125 15.8385C138.573 16.3474 139.139 16.604 139.819 16.604C140.495 16.604 141.057 16.3474 141.505 15.8344C141.952 15.3214 142.176 14.5396 142.176 13.485C142.176 12.4915 141.952 11.7423 141.501 11.2293C141.049 10.7162 140.491 10.4638 139.819 10.4638C139.139 10.4638 138.573 10.7162 138.125 11.2252C137.677 11.7342 137.453 12.4997 137.453 13.5298Z" fill="#5E6A93"/>
<path d="M145.136 17.5399V6.46484H146.496V17.5399H145.136Z" fill="#5E6A93"/>
<path d="M148.614 17.5399V6.46484H149.974V12.7801L153.191 9.51456H154.95L151.884 12.491L155.259 17.5358H153.582L150.931 13.4316L149.97 14.3518V17.5318H148.614V17.5399Z" fill="#5E6A93"/>
<path d="M155.796 15.1463L157.14 14.9346C157.217 15.472 157.425 15.8873 157.771 16.1723C158.117 16.4614 158.597 16.604 159.216 16.604C159.839 16.604 160.303 16.4777 160.605 16.2212C160.906 15.9688 161.057 15.6675 161.057 15.3254C161.057 15.0201 160.922 14.7758 160.658 14.6007C160.47 14.4785 160.006 14.3279 159.269 14.1406C158.272 13.8881 157.579 13.6723 157.197 13.485C156.81 13.3018 156.521 13.0453 156.321 12.7236C156.122 12.3979 156.024 12.0396 156.024 11.6487C156.024 11.2904 156.105 10.9606 156.268 10.6552C156.431 10.3498 156.655 10.0973 156.936 9.89376C157.148 9.73904 157.437 9.60467 157.799 9.4988C158.166 9.38887 158.557 9.33594 158.972 9.33594C159.603 9.33594 160.153 9.42551 160.629 9.60874C161.105 9.79197 161.456 10.0363 161.684 10.3457C161.912 10.6552 162.066 11.0705 162.152 11.5876L160.82 11.7708C160.759 11.3596 160.584 11.0338 160.295 10.8018C160.006 10.5697 159.595 10.4557 159.07 10.4557C158.447 10.4557 157.999 10.5575 157.734 10.7651C157.465 10.9728 157.335 11.213 157.335 11.4899C157.335 11.665 157.392 11.8238 157.502 11.9663C157.612 12.1128 157.787 12.235 158.023 12.3286C158.157 12.3775 158.561 12.4956 159.224 12.6747C160.185 12.9313 160.857 13.143 161.236 13.3059C161.614 13.4687 161.916 13.709 162.131 14.0184C162.347 14.3319 162.457 14.7187 162.457 15.1829C162.457 15.6349 162.323 16.0624 162.062 16.4614C161.798 16.8605 161.415 17.1699 160.918 17.3898C160.421 17.6097 159.855 17.7196 159.224 17.7196C158.182 17.7196 157.388 17.5038 156.842 17.0681C156.297 16.6406 155.947 15.9973 155.796 15.1463Z" fill="#5E6A93"/>
<path d="M164.078 17.5399V6.46484H165.438V10.4388C166.073 9.70186 166.875 9.33541 167.84 9.33541C168.435 9.33541 168.952 9.45349 169.388 9.68557C169.827 9.91766 170.141 10.2434 170.328 10.6546C170.516 11.0659 170.613 11.6685 170.613 12.4543V17.5399H169.253V12.4543C169.253 11.7744 169.107 11.2776 168.809 10.9682C168.516 10.6587 168.097 10.504 167.559 10.504C167.156 10.504 166.778 10.6099 166.423 10.8175C166.069 11.0252 165.817 11.3102 165.666 11.6685C165.515 12.0268 165.438 12.5195 165.438 13.1506V17.5399H164.078Z" fill="#5E6A93"/>
<path d="M172.176 13.5298C172.176 12.0436 172.587 10.9443 173.414 10.2276C174.102 9.63317 174.945 9.33594 175.938 9.33594C177.041 9.33594 177.941 9.69832 178.642 10.419C179.342 11.1438 179.692 12.1414 179.692 13.4158C179.692 14.45 179.537 15.2603 179.228 15.8507C178.919 16.4411 178.467 16.9012 177.876 17.231C177.286 17.5567 176.638 17.7237 175.938 17.7237C174.814 17.7237 173.906 17.3654 173.214 16.6447C172.522 15.9199 172.176 14.8816 172.176 13.5298ZM173.572 13.5298C173.572 14.5559 173.796 15.3254 174.244 15.8385C174.692 16.3474 175.258 16.604 175.938 16.604C176.614 16.604 177.176 16.3474 177.624 15.8344C178.072 15.3214 178.296 14.5396 178.296 13.485C178.296 12.4915 178.072 11.7423 177.62 11.2293C177.168 10.7162 176.61 10.4638 175.938 10.4638C175.258 10.4638 174.692 10.7162 174.244 11.2252C173.796 11.7342 173.572 12.4997 173.572 13.5298Z" fill="#5E6A93"/>
<path d="M186.522 14.6005L187.857 14.7756C187.711 15.6958 187.336 16.4206 186.737 16.9417C186.135 17.4629 185.398 17.7235 184.518 17.7235C183.419 17.7235 182.54 17.3652 181.872 16.6486C181.204 15.932 180.87 14.9018 180.87 13.5622C180.87 12.6949 181.013 11.9376 181.302 11.2902C181.591 10.6428 182.026 10.1542 182.613 9.82845C183.199 9.50271 183.838 9.33984 184.527 9.33984C185.398 9.33984 186.11 9.55972 186.664 9.99946C187.218 10.4392 187.572 11.0663 187.731 11.8765L186.408 12.0801C186.281 11.5426 186.057 11.1355 185.74 10.8627C185.418 10.5899 185.031 10.4555 184.579 10.4555C183.895 10.4555 183.338 10.6998 182.91 11.1925C182.483 11.6852 182.267 12.4629 182.267 13.5215C182.267 14.6005 182.474 15.3823 182.886 15.8709C183.297 16.3595 183.838 16.6038 184.502 16.6038C185.035 16.6038 185.483 16.4409 185.838 16.1111C186.2 15.7854 186.428 15.2805 186.522 14.6005Z" fill="#5E6A93"/>
<path d="M189.025 17.5399V6.46484H190.385V10.4388C191.021 9.70186 191.823 9.33541 192.788 9.33541C193.382 9.33541 193.899 9.45349 194.335 9.68557C194.775 9.91766 195.088 10.2434 195.275 10.6546C195.463 11.0659 195.56 11.6685 195.56 12.4543V17.5399H194.201V12.4543C194.201 11.7744 194.054 11.2776 193.757 10.9682C193.464 10.6587 193.044 10.504 192.507 10.504C192.104 10.504 191.725 10.6099 191.371 10.8175C191.016 11.0252 190.764 11.3102 190.613 11.6685C190.463 12.0268 190.385 12.5195 190.385 13.1506V17.5399H189.025Z" fill="#5E6A93"/>
<path d="M197.083 15.1463L198.427 14.9346C198.504 15.472 198.712 15.8873 199.058 16.1723C199.404 16.4614 199.884 16.604 200.503 16.604C201.126 16.604 201.59 16.4777 201.892 16.2212C202.193 15.9688 202.344 15.6675 202.344 15.3254C202.344 15.0201 202.209 14.7758 201.945 14.6007C201.757 14.4785 201.293 14.3279 200.556 14.1406C199.559 13.8881 198.866 13.6723 198.484 13.485C198.097 13.3018 197.808 13.0453 197.608 12.7236C197.409 12.3979 197.311 12.0396 197.311 11.6487C197.311 11.2904 197.392 10.9606 197.555 10.6552C197.718 10.3498 197.942 10.0973 198.223 9.89376C198.435 9.73904 198.724 9.60467 199.086 9.4988C199.453 9.38887 199.844 9.33594 200.259 9.33594C200.89 9.33594 201.44 9.42551 201.916 9.60874C202.393 9.79197 202.743 10.0363 202.971 10.3457C203.199 10.6552 203.353 11.0705 203.439 11.5876L202.107 11.7708C202.046 11.3596 201.871 11.0338 201.582 10.8018C201.293 10.5697 200.882 10.4557 200.357 10.4557C199.734 10.4557 199.286 10.5575 199.021 10.7651C198.752 10.9728 198.622 11.213 198.622 11.4899C198.622 11.665 198.679 11.8238 198.789 11.9663C198.899 12.1128 199.074 12.235 199.31 12.3286C199.445 12.3775 199.848 12.4956 200.511 12.6747C201.472 12.9313 202.144 13.143 202.523 13.3059C202.901 13.4687 203.203 13.709 203.419 14.0184C203.634 14.3319 203.744 14.7187 203.744 15.1829C203.744 15.6349 203.61 16.0624 203.349 16.4614C203.085 16.8605 202.702 17.1699 202.205 17.3898C201.708 17.6097 201.143 17.7196 200.511 17.7196C199.469 17.7196 198.675 17.5038 198.129 17.0681C197.584 16.6406 197.238 15.9973 197.083 15.1463Z" fill="#5E6A93"/>
<path d="M210.601 14.6005L211.936 14.7756C211.79 15.6958 211.415 16.4206 210.817 16.9417C210.214 17.4629 209.477 17.7235 208.597 17.7235C207.498 17.7235 206.619 17.3652 205.951 16.6486C205.283 15.932 204.949 14.9018 204.949 13.5622C204.949 12.6949 205.092 11.9376 205.381 11.2902C205.67 10.6428 206.106 10.1542 206.692 9.82845C207.278 9.50271 207.917 9.33984 208.606 9.33984C209.477 9.33984 210.19 9.55972 210.743 9.99946C211.297 10.4392 211.651 11.0663 211.81 11.8765L210.487 12.0801C210.361 11.5426 210.137 11.1355 209.819 10.8627C209.497 10.5899 209.111 10.4555 208.659 10.4555C207.974 10.4555 207.417 10.6998 206.989 11.1925C206.562 11.6852 206.346 12.4629 206.346 13.5215C206.346 14.6005 206.553 15.3823 206.965 15.8709C207.376 16.3595 207.917 16.6038 208.581 16.6038C209.115 16.6038 209.562 16.4409 209.917 16.1111C210.279 15.7854 210.503 15.2805 210.601 14.6005Z" fill="#5E6A93"/>
<path d="M213.101 17.5399V6.46484H214.461V10.4388C215.096 9.70186 215.898 9.33541 216.863 9.33541C217.457 9.33541 217.974 9.45349 218.41 9.68557C218.85 9.91766 219.163 10.2434 219.351 10.6546C219.538 11.0659 219.636 11.6685 219.636 12.4543V17.5399H218.276V12.4543C218.276 11.7744 218.129 11.2776 217.832 10.9682C217.539 10.6587 217.119 10.504 216.582 10.504C216.179 10.504 215.8 10.6099 215.446 10.8175C215.092 11.0252 214.839 11.3102 214.689 11.6685C214.538 12.0268 214.461 12.5195 214.461 13.1506V17.5399H213.101Z" fill="#5E6A93"/>
<path d="M226.966 17.541V16.3643C226.343 17.2722 225.492 17.7242 224.421 17.7242C223.949 17.7242 223.505 17.6346 223.094 17.4514C222.682 17.2682 222.377 17.0442 222.178 16.7674C221.978 16.4946 221.84 16.1566 221.758 15.7576C221.701 15.4888 221.677 15.0694 221.677 14.4872V9.51562H223.037V13.966C223.037 14.6745 223.065 15.155 223.118 15.4033C223.204 15.7616 223.387 16.0426 223.664 16.2462C223.941 16.4498 224.283 16.5516 224.69 16.5516C225.097 16.5516 225.48 16.4457 225.838 16.238C226.196 16.0304 226.449 15.7454 226.599 15.383C226.746 15.0247 226.823 14.4994 226.823 13.8154V9.51562H228.183V17.541H226.966Z" fill="#5E6A93"/>
<path d="M230.28 17.5399V6.46484H231.64V17.5399H230.28Z" fill="#5E6A93"/>
<path d="M239.242 14.9531L240.646 15.1282C240.426 15.9507 240.015 16.5859 239.417 17.0378C238.818 17.4898 238.053 17.7178 237.12 17.7178C235.948 17.7178 235.015 17.3554 234.327 16.6347C233.639 15.91 233.297 14.9002 233.297 13.5932C233.297 12.2454 233.643 11.1949 234.339 10.4498C235.035 9.70468 235.935 9.33008 237.043 9.33008C238.114 9.33008 238.993 9.69653 239.673 10.4254C240.353 11.1542 240.691 12.1844 240.691 13.5077C240.691 13.5891 240.687 13.7112 240.683 13.87H234.698C234.746 14.7536 234.999 15.4254 235.447 15.8937C235.895 16.3619 236.452 16.5981 237.124 16.5981C237.621 16.5981 238.049 16.4678 238.403 16.2072C238.757 15.9466 239.034 15.5272 239.242 14.9531ZM234.775 12.7544H239.254C239.193 12.0785 239.022 11.5736 238.741 11.2356C238.309 10.7104 237.747 10.4498 237.055 10.4498C236.432 10.4498 235.907 10.6575 235.479 11.0768C235.056 11.4962 234.82 12.0581 234.775 12.7544Z" fill="#5E6A93"/>
<path d="M22.8871 10.7462C23.0459 10.1803 22.594 9.54509 21.9425 9.54509H16.9343C16.5393 9.54509 16.1444 9.80161 15.9978 10.2536L12.15 23.4948C12.093 23.6332 11.9749 23.8531 11.6818 23.8531C11.3927 23.8531 11.2502 23.6373 11.2094 23.4867L7.4716 10.2984C7.36574 9.90747 7.05629 9.54102 6.54732 9.54102L0.997571 9.54509C0.47232 9.54509 0 9.89933 0 10.6241C0 10.9865 7.39017 33.67 7.45124 33.8085C7.55304 34.0324 7.8177 34.3989 8.34702 34.3989H14.7437C15.1346 34.3989 15.5051 34.1668 15.6639 33.7352L22.8871 10.7462Z" fill="#052C5A"/>
<path d="M46.9221 33.405C46.9221 32.9693 46.9221 18.4659 46.9221 18.4659C46.9221 15.0253 46.4049 13.2378 45.2323 11.5928C44.0474 9.92341 41.47 8.68153 38.0172 8.68153C36.7631 8.68153 34.2631 9.10906 32.3087 10.9128V1.00634C32.3087 0.497379 31.8852 0.0332031 31.3233 0.0332031C31.3233 0.0332031 26.3436 0.0332031 26.3354 0.0332031C25.7247 0.0332031 25.3623 0.546239 25.3623 1.00634C25.3623 1.11221 25.3623 33.4009 25.3623 33.4009C25.3623 33.8651 25.7125 34.3944 26.3151 34.3944H31.307C31.8933 34.3944 32.3046 33.9303 32.3046 33.4009V19.0603C32.3046 16.4952 33.8803 14.6955 36.1564 14.6955C38.1556 14.6955 39.9838 16.2956 39.9838 19.0603V33.405C39.9838 34.0361 40.4521 34.3985 40.9285 34.3985C41.0181 34.3985 45.2689 34.3985 45.9204 34.3985C46.5841 34.3985 46.9221 33.8366 46.9221 33.405Z" fill="#052C5A"/>
<path d="M70.1514 14.9752C70.1514 13.2284 68.03 8.71289 60.2042 8.71289C50.7618 8.71289 50.0615 14.3074 50.0615 15.9728C50.0615 20.5616 53.4451 22.2758 57.6593 23.5624C61.4949 24.7351 63.7995 25.7937 63.7995 27.2392C63.7995 29.5234 61.5723 29.7311 60.3304 29.7311C57.8629 29.7311 56.3727 28.0739 56.0144 26.7628C55.8067 26.0055 55.3262 25.8996 55.0249 25.8996L50.4605 26.2254C49.8783 26.2661 49.6055 26.9664 49.6055 27.2189C49.6055 30.2197 53.0909 35.2605 60.3589 35.2605C68.6489 35.2605 71.096 30.1668 71.096 27.2351C71.096 21.8605 67.4518 20.4964 63.2009 19.2098C59.8743 18.2041 56.902 17.3449 56.902 15.7733C56.902 15.1951 56.9223 13.6234 60.1675 13.6234C61.9835 13.6234 63.7954 14.1771 64.1863 15.5697C64.3369 16.1112 64.85 16.3066 65.1391 16.2985C65.6928 16.2863 69.2149 16.0176 69.2149 16.0176C69.6505 15.9728 70.1432 15.7081 70.1514 14.9752Z" fill="#052C5A"/>
<path d="M99.6067 32.2029C99.0407 32.2029 98.5073 32.3332 98.0269 32.5572C98.0147 32.4391 97.9943 32.3251 97.9739 32.2111C97.3998 28.6402 94.3053 25.9121 90.5716 25.9121C86.4266 25.9121 83.0674 29.2713 83.0674 33.4163C83.0674 37.5613 86.4266 40.9164 90.5716 40.9164C92.9739 40.9164 95.1075 39.7845 96.4796 38.0255C97.1515 39.0393 98.2997 39.7071 99.6067 39.7071C101.679 39.7071 103.357 38.0295 103.357 35.957C103.357 33.8845 101.679 32.2029 99.6067 32.2029Z" fill="#E30613"/>
<path d="M106.573 31.5763C106.573 33.5836 105.205 35.2734 103.349 35.762C102.994 35.8557 98.4748 34.4753 98.0269 32.5576C97.9536 32.244 97.917 31.9142 97.917 31.5763C97.917 29.1821 99.8551 27.248 102.245 27.248C104.635 27.248 106.573 29.1821 106.573 31.5763Z" fill="#63B9E9"/>
<path d="M113.56 28.209C113.56 31.0755 111.235 33.4005 108.364 33.4005C105.494 33.4005 103.173 31.0755 103.173 28.209C103.173 25.3385 105.498 23.0176 108.364 23.0176C111.231 23.0176 113.56 25.3385 113.56 28.209Z" fill="#2474AF"/>
<path d="M103.349 35.7576C103.243 33.7787 101.61 32.207 99.607 32.207C99.0451 32.207 98.5117 32.3373 98.0312 32.5572C98.4751 34.475 100.193 35.9042 102.245 35.9042C102.628 35.9001 102.995 35.8512 103.349 35.7576Z" fill="#8C0F24"/>
<path d="M110.385 22.1133C110.385 23.229 109.481 24.1329 108.365 24.1329C107.25 24.1329 106.346 23.229 106.346 22.1133C106.346 20.9977 107.25 20.0938 108.365 20.0938C109.481 20.0938 110.385 20.9977 110.385 22.1133Z" fill="#63B9E9"/>
<path d="M106.764 0.199219C104.57 0.199219 102.57 1.02171 101.044 2.36944C100.685 2.03963 100.209 1.83198 99.6836 1.83198C98.568 1.83198 97.6641 2.7359 97.6641 3.85155C97.6641 4.62111 98.0997 5.2848 98.739 5.62275C98.3359 6.62032 98.1079 7.71154 98.1079 8.85162C98.1079 13.6318 101.984 17.5081 106.764 17.5081C111.545 17.5081 115.421 13.6318 115.421 8.85162C115.417 4.0755 111.545 0.199219 106.764 0.199219Z" fill="#FBBA00"/>
<path d="M84.4515 29.0676C85.555 27.7035 85.3432 25.7084 83.9833 24.605C82.6233 23.5015 80.6241 23.7092 79.5207 25.0732C78.4172 26.4372 78.629 28.4324 79.9889 29.5358C81.3489 30.6393 83.3481 30.4316 84.4515 29.0676Z" fill="#EC6608"/>
<path d="M103.247 27.3672C103.202 27.64 103.174 27.9209 103.174 28.21C103.174 30.3558 104.477 32.1962 106.333 32.9902C106.488 32.5464 106.574 32.0741 106.574 31.5773C106.574 29.5293 105.153 27.8191 103.247 27.3672Z" fill="#295182"/>
<path d="M108.365 23.0137C107.79 23.0137 107.241 23.1114 106.724 23.2824C107.09 23.7954 107.689 24.1334 108.365 24.1334C109.045 24.1334 109.639 23.7954 110.005 23.2824C109.492 23.1114 108.939 23.0137 108.365 23.0137Z" fill="#295182"/>
<path d="M98.7354 5.62847C99.0204 5.77912 99.338 5.87277 99.68 5.87277C100.796 5.87277 101.7 4.96885 101.7 3.8532C101.7 3.2628 101.443 2.73755 101.04 2.37109C100.042 3.25466 99.2443 4.36624 98.7354 5.62847Z" fill="#E29100"/>
<path d="M88.3758 0C87.305 0 86.3603 0.533395 85.7821 1.34367C84.7235 0.553753 83.4165 0.0814347 81.9914 0.0814347C78.4856 0.0814347 75.6436 2.92349 75.6436 6.42924C75.6436 9.93499 78.4856 12.7771 81.9914 12.7771C85.4971 12.7771 88.3392 9.93499 88.3392 6.42924C88.3392 6.40074 88.3351 6.37224 88.3351 6.34781C88.3473 6.34781 88.3595 6.34781 88.3717 6.34781C90.1226 6.34781 91.5477 4.92678 91.5477 3.17594C91.5477 1.42103 90.1267 0 88.3758 0Z" fill="#052C5A"/>
<path d="M77.2078 16.3607C76.2021 15.8844 74.9969 16.3119 74.5164 17.3176C74.0359 18.3233 74.4594 19.5285 75.4651 20.009C76.4708 20.4895 77.6761 20.0579 78.1565 19.0522C78.6411 18.0464 78.2176 16.8412 77.2078 16.3607Z" fill="#052C5A"/>
<path d="M94.3787 4.79297C93.8372 4.79297 93.3975 5.23271 93.3975 5.77425C93.3975 6.31579 93.8372 6.75554 94.3787 6.75554C94.9203 6.75554 95.36 6.31579 95.36 5.77425C95.36 5.23271 94.9243 4.79297 94.3787 4.79297Z" fill="#052C5A"/>
<path d="M107.873 35.2852C107.331 35.2852 106.892 35.7249 106.892 36.2664C106.892 36.808 107.331 37.2477 107.873 37.2477C108.414 37.2477 108.854 36.808 108.854 36.2664C108.854 35.7249 108.414 35.2852 107.873 35.2852Z" fill="#052C5A"/>
</svg>
