<svg width="495" height="217" viewBox="0 0 495 217" fill="none" xmlns="http://www.w3.org/2000/svg">
<rect width="495" height="217" rx="7" fill="#D9D9D9"/>
<path d="M198.199 79.1758V84H195.045V69.9961H199.986C203.515 69.9961 205.279 71.4837 205.279 74.459C205.279 75.8652 204.771 77.0046 203.756 77.877C202.747 78.7428 201.396 79.1758 199.703 79.1758H198.199ZM198.199 72.418V76.7832H199.439C201.119 76.7832 201.959 76.0475 201.959 74.5762C201.959 73.1374 201.119 72.418 199.439 72.418H198.199ZM210.113 84H207.027V69.1953H210.113V84ZM221.031 84H218.111V82.5645H218.072C217.402 83.6842 216.409 84.2441 215.094 84.2441C214.124 84.2441 213.359 83.9707 212.799 83.4238C212.245 82.8704 211.969 82.1348 211.969 81.2168C211.969 79.2767 213.118 78.1569 215.416 77.8574L218.131 77.4961C218.131 76.4023 217.538 75.8555 216.354 75.8555C215.162 75.8555 214.029 76.2103 212.955 76.9199V74.5957C213.385 74.3743 213.971 74.179 214.713 74.0098C215.462 73.8405 216.142 73.7559 216.754 73.7559C219.605 73.7559 221.031 75.1784 221.031 78.0234V84ZM218.131 79.9375V79.2637L216.314 79.498C215.312 79.6283 214.811 80.0807 214.811 80.8555C214.811 81.207 214.931 81.4967 215.172 81.7246C215.419 81.946 215.751 82.0566 216.168 82.0566C216.747 82.0566 217.219 81.8581 217.584 81.4609C217.949 81.0573 218.131 80.5495 218.131 79.9375ZM229.518 83.8828C229.062 84.1237 228.375 84.2441 227.457 84.2441C225.283 84.2441 224.195 83.1146 224.195 80.8555V76.2754H222.574V74H224.195V71.8418L227.271 70.9629V74H229.518V76.2754H227.271V80.3184C227.271 81.36 227.685 81.8809 228.512 81.8809C228.837 81.8809 229.173 81.7865 229.518 81.5977V83.8828ZM239.186 84H230.211V82.7207L235.23 76.2754H230.709V74H239.146V75.5234L234.391 81.7246H239.186V84ZM250.455 84H247.379V78.3164C247.379 76.8516 246.845 76.1191 245.777 76.1191C245.23 76.1191 244.788 76.3242 244.449 76.7344C244.111 77.1445 243.941 77.6654 243.941 78.2969V84H240.855V69.1953H243.941V75.4844H243.98C244.736 74.332 245.761 73.7559 247.057 73.7559C249.322 73.7559 250.455 75.123 250.455 77.8574V84ZM261.227 84H258.307V82.5645H258.268C257.597 83.6842 256.604 84.2441 255.289 84.2441C254.319 84.2441 253.554 83.9707 252.994 83.4238C252.441 82.8704 252.164 82.1348 252.164 81.2168C252.164 79.2767 253.313 78.1569 255.611 77.8574L258.326 77.4961C258.326 76.4023 257.734 75.8555 256.549 75.8555C255.357 75.8555 254.225 76.2103 253.15 76.9199V74.5957C253.58 74.3743 254.166 74.179 254.908 74.0098C255.657 73.8405 256.337 73.7559 256.949 73.7559C259.801 73.7559 261.227 75.1784 261.227 78.0234V84ZM258.326 79.9375V79.2637L256.51 79.498C255.507 79.6283 255.006 80.0807 255.006 80.8555C255.006 81.207 255.126 81.4967 255.367 81.7246C255.615 81.946 255.947 82.0566 256.363 82.0566C256.943 82.0566 257.415 81.8581 257.779 81.4609C258.144 81.0573 258.326 80.5495 258.326 79.9375ZM266.754 84H263.668V69.1953H266.754V84ZM275.396 83.8828C274.941 84.1237 274.254 84.2441 273.336 84.2441C271.161 84.2441 270.074 83.1146 270.074 80.8555V76.2754H268.453V74H270.074V71.8418L273.15 70.9629V74H275.396V76.2754H273.15V80.3184C273.15 81.36 273.564 81.8809 274.391 81.8809C274.716 81.8809 275.051 81.7865 275.396 81.5977V83.8828ZM286.051 79.8789H279.527C279.632 81.3307 280.546 82.0566 282.271 82.0566C283.372 82.0566 284.339 81.7962 285.172 81.2754V83.502C284.247 83.9967 283.046 84.2441 281.568 84.2441C279.954 84.2441 278.701 83.7982 277.809 82.9062C276.917 82.0078 276.471 80.7578 276.471 79.1562C276.471 77.4961 276.952 76.181 277.916 75.2109C278.88 74.2409 280.064 73.7559 281.471 73.7559C282.929 73.7559 284.055 74.1888 284.85 75.0547C285.65 75.9206 286.051 77.0957 286.051 78.5801V79.8789ZM283.189 77.9844C283.189 76.5521 282.61 75.8359 281.451 75.8359C280.956 75.8359 280.527 76.041 280.162 76.4512C279.804 76.8613 279.586 77.3724 279.508 77.9844H283.189ZM294.41 76.7832C294.039 76.5814 293.606 76.4805 293.111 76.4805C292.441 76.4805 291.917 76.7279 291.539 77.2227C291.161 77.7109 290.973 78.3783 290.973 79.2246V84H287.887V74H290.973V75.8555H291.012C291.5 74.5013 292.379 73.8242 293.648 73.8242C293.974 73.8242 294.228 73.8633 294.41 73.9414V76.7832Z" fill="#3E484F"/>
</svg>
